<svg xmlns="http://www.w3.org/2000/svg" xmlns:xlink="http://www.w3.org/1999/xlink">
  <symbol id="svg-enum" viewBox="0 0 100 100">
    <path fill="#000" class="svg-fill" d="M15.12,32.19A10.13,10.13,0,1,0,5,22.06,10.14,10.14,0,0,0,15.12,32.19Zm0-14.63a4.5,4.5,0,1,1-4.5,4.5A4.5,4.5,0,0,1,15.12,17.56Z"/>
    <path fill="#000" class="svg-fill" d="M37.44,24.88H92.19a2.82,2.82,0,0,0,0-5.63H37.44a2.82,2.82,0,1,0,0,5.63Z"/>
    <path fill="#000" class="svg-fill" d="M15.12,60.12A10.12,10.12,0,1,0,5,50,10.13,10.13,0,0,0,15.12,60.12Zm0-14.62a4.5,4.5,0,1,1-4.5,4.5A4.5,4.5,0,0,1,15.12,45.5Z"/>
    <path fill="#000" class="svg-fill" d="M92.19,47.19H37.44a2.81,2.81,0,1,0,0,5.62H92.19a2.81,2.81,0,0,0,0-5.62Z"/>
    <path fill="#000" class="svg-fill" d="M15.12,88.06A10.13,10.13,0,1,0,5,77.94,10.13,10.13,0,0,0,15.12,88.06Zm0-14.62a4.5,4.5,0,1,1-4.5,4.5A4.5,4.5,0,0,1,15.12,73.44Z"/>
    <path fill="#000" class="svg-fill" d="M92.19,75.12H37.44a2.82,2.82,0,1,0,0,5.63H92.19a2.82,2.82,0,0,0,0-5.63Z"/>
  </symbol>
  <use xlink:href="#svg-enum" />
</svg>
