<svg xmlns="http://www.w3.org/2000/svg" xmlns:xlink="http://www.w3.org/1999/xlink">
  <symbol id="svg-list" viewBox="0 0 100 100">
    <g transform="translate(0,-952.36218)">
      <g transform="translate(14.992127,957.36218)">
        <path fill="#000" class="svg-fill" d="M 5.9881889,0 C 2.6929133,0 0,2.6929134 0,5.988189 L 0,84.011811 C 0,87.307087 2.6929133,90 5.9881889,90 l 58.0039361,0 c 3.295276,0 6.023622,-2.692913 6.023622,-5.988189 l 0,-78.023622 C 70.015747,2.6929134 67.287401,0 63.992125,0 z m 0,4.003937 58.0039361,0 c 1.133858,0 2.019685,0.8503937 2.019685,1.984252 l 0,78.023622 c 0,1.133858 -0.885827,1.984252 -2.019685,1.984252 l -58.0039361,0 c -1.1338583,0 -1.9842519,-0.850394 -1.9842519,-1.984252 l 0,-78.023622 c 0,-1.1338583 0.8503936,-1.984252 1.9842519,-1.984252 z m 4.9960631,13.003937 0,8.007874 8.007874,0 0,-8.007874 z m 17.007874,1.984252 c -1.098426,0 -1.984252,0.885827 -1.984252,2.019685 0,1.098425 0.885826,1.984252 1.984252,1.984252 l 29.019684,0 c 1.098425,0 1.984252,-0.885827 1.984252,-1.984252 0,-1.133858 -0.885827,-2.019685 -1.984252,-2.019685 z m -17.007874,13.996063 0,8.007874 8.007874,0 0,-8.007874 z m 17.007874,2.019685 c -1.098426,0 -1.984252,0.885827 -1.984252,1.984252 0,1.098425 0.885826,2.019685 1.984252,2.019685 l 29.019684,0 c 1.098425,0 1.984252,-0.92126 1.984252,-2.019685 0,-1.098425 -0.885827,-1.984252 -1.984252,-1.984252 z m -17.007874,13.996063 0,8.007874 8.007874,0 0,-8.007874 z m 17.007874,1.984252 c -1.098426,0 -1.984252,0.92126 -1.984252,2.019685 0,1.098425 0.885826,1.984252 1.984252,1.984252 l 29.019684,0 c 1.098425,0 1.984252,-0.885827 1.984252,-1.984252 0,-1.098425 -0.885827,-2.019685 -1.984252,-2.019685 z m -17.007874,13.996063 0,8.007874 8.007874,0 0,-8.007874 z m 17.007874,2.019685 c -1.098426,0 -1.984252,0.885827 -1.984252,1.984252 0,1.133858 0.885826,2.019685 1.984252,2.019685 l 29.019684,0 c 1.098425,0 1.984252,-0.885827 1.984252,-2.019685 0,-1.098425 -0.885827,-1.984252 -1.984252,-1.984252 z" />
      </g>
    </g>
  </symbol>
  <use xlink:href="#svg-list" />
</svg>
