<svg xmlns="http://www.w3.org/2000/svg" xmlns:xlink="http://www.w3.org/1999/xlink">
  <symbol id="svg-refresh" viewBox="0 0 24 24">
    <path class="svg-fill" d="M21,5v5H16V9h3.39886A7.98965,7.98965,0,0,0,4,12H3A8.99579,8.99579,0,0,1,20,7.89008V5ZM12,20a7.9958,7.9958,0,0,1-7.39886-5H8V14H3v5H4V16.10992A8.99579,8.99579,0,0,0,21,12H20A8.00909,8.00909,0,0,1,12,20Z"/>
    <path class="svg-fill" d="M19.5,12H21A8.98578,8.98578,0,0,1,4.5,16.94177V19H3V14H8v1.5H5.38165A7.49071,7.49071,0,0,0,19.5,12Zm0-7V7.05817A8.98581,8.98581,0,0,0,3,12H4.5A7.49071,7.49071,0,0,1,18.61835,8.5H16V10h5V5Z"/>
  </symbol>
  <use xlink:href="#svg-refresh" />
</svg>
