<svg xmlns="http://www.w3.org/2000/svg" xmlns:xlink="http://www.w3.org/1999/xlink">
  <symbol id="svg-sort" viewBox="0 0 64 64">
    <path class="svg-fill" d="M22.586,44.586L20,47.172V12c0-1.104-0.896-2-2-2s-2,0.896-2,2v35.172l-2.586-2.586c-0.78-0.781-2.048-0.781-2.828,0    c-0.781,0.781-0.781,2.047,0,2.828l6,6C16.976,53.805,17.488,54,18,54s1.024-0.195,1.414-0.586l6-6    c0.781-0.781,0.781-2.047,0-2.828C24.634,43.805,23.366,43.805,22.586,44.586z"/>
    <path class="svg-fill" d="M40,36H30c-1.104,0-2,0.896-2,2s0.896,2,2,2h10c1.104,0,2-0.896,2-2S41.104,36,40,36z"/>
    <path class="svg-fill" d="M44,26H30c-1.104,0-2,0.896-2,2s0.896,2,2,2h14c1.104,0,2-0.896,2-2S45.104,26,44,26z"/>
    <path class="svg-fill" d="M50,16H30c-1.104,0-2,0.896-2,2s0.896,2,2,2h20c1.104,0,2-0.896,2-2S51.104,16,50,16z" />
  </symbol>
  <use xlink:href="#svg-sort" />
</svg>
