<svg xmlns="http://www.w3.org/2000/svg" xmlns:xlink="http://www.w3.org/1999/xlink">
  <symbol id="svg-struct" viewBox="0 0 100 100">
    <path fill="#000" class="svg-fill" d="M90.143,85.338V66.203V47.068V27.934V19.98c0-3.966-3.226-7.192-7.192-7.192H17.047c-3.964,0-7.191,3.226-7.191,7.192v7.954  v19.135v19.135v19.135c0,1.036,0.839,1.875,1.875,1.875h25.512h25.51h25.514C89.305,87.213,90.143,86.374,90.143,85.338z   M39.119,29.809h21.76v15.385h-21.76V29.809z M64.629,29.809h21.764v15.385H64.629V29.809z M35.369,45.193H13.607V29.809h21.762  V45.193z M13.607,48.943h21.762v15.385H13.607V48.943z M39.119,48.943h21.76v15.385h-21.76V48.943z M64.629,48.943h21.764v15.385  H64.629V48.943z M17.047,16.537h65.903c1.897,0,3.442,1.545,3.442,3.442v6.079H62.754h-25.51H13.607V19.98  C13.607,18.083,15.15,16.537,17.047,16.537z M13.607,68.078h21.762v15.385H13.607V68.078z M39.119,68.078h21.76v15.385h-21.76  V68.078z M86.393,83.463H64.629V68.078h21.764V83.463z"/>
  </symbol>
  <use xlink:href="#svg-struct" />
</svg>
